<mxfile host="65bd71144e">
    <diagram name="Page-1" id="GciBP0H3xGtkg3ePsBkX">
        <mxGraphModel dx="1136" dy="607" grid="1" gridSize="10" guides="1" tooltips="1" connect="1" arrows="1" fold="1" page="1" pageScale="1" pageWidth="850" pageHeight="1100" math="0" shadow="0">
            <root>
                <mxCell id="0"/>
                <mxCell id="1" parent="0"/>
                <mxCell id="pzA6dthsY2n9U7u8kSMn-4" value="" style="edgeStyle=orthogonalEdgeStyle;rounded=0;orthogonalLoop=1;jettySize=auto;html=1;" parent="1" source="pzA6dthsY2n9U7u8kSMn-1" target="pzA6dthsY2n9U7u8kSMn-3" edge="1">
                    <mxGeometry relative="1" as="geometry"/>
                </mxCell>
                <mxCell id="pzA6dthsY2n9U7u8kSMn-1" value="Start" style="rounded=1;whiteSpace=wrap;html=1;" parent="1" vertex="1">
                    <mxGeometry x="80" y="40" width="90" height="40" as="geometry"/>
                </mxCell>
                <mxCell id="pzA6dthsY2n9U7u8kSMn-7" value="" style="edgeStyle=orthogonalEdgeStyle;rounded=0;orthogonalLoop=1;jettySize=auto;html=1;exitX=0.5;exitY=1;exitDx=0;exitDy=0;" parent="1" source="2" target="pzA6dthsY2n9U7u8kSMn-6" edge="1">
                    <mxGeometry relative="1" as="geometry">
                        <Array as="points">
                            <mxPoint x="125" y="290"/>
                        </Array>
                    </mxGeometry>
                </mxCell>
                <mxCell id="3" value="" style="edgeStyle=none;html=1;" parent="1" source="pzA6dthsY2n9U7u8kSMn-3" target="2" edge="1">
                    <mxGeometry relative="1" as="geometry"/>
                </mxCell>
                <mxCell id="pzA6dthsY2n9U7u8kSMn-3" value="&lt;div&gt;Display &quot;Please enter a&lt;/div&gt;&lt;div&gt;&amp;nbsp;radius and I will tell you&lt;/div&gt;&lt;div&gt;&amp;nbsp;its area and circumference: &quot;&lt;/div&gt;" style="shape=parallelogram;perimeter=parallelogramPerimeter;whiteSpace=wrap;html=1;fixedSize=1;" parent="1" vertex="1">
                    <mxGeometry x="36.25" y="100" width="177.5" height="60" as="geometry"/>
                </mxCell>
                <mxCell id="pzA6dthsY2n9U7u8kSMn-9" value="" style="edgeStyle=orthogonalEdgeStyle;rounded=0;orthogonalLoop=1;jettySize=auto;html=1;" parent="1" source="pzA6dthsY2n9U7u8kSMn-6" target="pzA6dthsY2n9U7u8kSMn-8" edge="1">
                    <mxGeometry relative="1" as="geometry"/>
                </mxCell>
                <mxCell id="pzA6dthsY2n9U7u8kSMn-6" value="&lt;div&gt;Execute pi*(radius)^2&lt;/div&gt;&lt;div&gt;and save it as Area&lt;br&gt;&lt;/div&gt;" style="whiteSpace=wrap;html=1;" parent="1" vertex="1">
                    <mxGeometry x="65" y="260" width="120" height="60" as="geometry"/>
                </mxCell>
                <mxCell id="pzA6dthsY2n9U7u8kSMn-11" value="" style="edgeStyle=orthogonalEdgeStyle;rounded=0;orthogonalLoop=1;jettySize=auto;html=1;" parent="1" source="pzA6dthsY2n9U7u8kSMn-8" target="pzA6dthsY2n9U7u8kSMn-10" edge="1">
                    <mxGeometry relative="1" as="geometry"/>
                </mxCell>
                <mxCell id="pzA6dthsY2n9U7u8kSMn-8" value="&lt;div&gt;Execute 2*pi*radius&lt;/div&gt;&lt;div&gt;and save it as Circumference&lt;br&gt;&lt;/div&gt;" style="whiteSpace=wrap;html=1;" parent="1" vertex="1">
                    <mxGeometry x="65" y="360" width="120" height="60" as="geometry"/>
                </mxCell>
                <mxCell id="pzA6dthsY2n9U7u8kSMn-16" value="" style="edgeStyle=orthogonalEdgeStyle;rounded=0;orthogonalLoop=1;jettySize=auto;html=1;" parent="1" source="pzA6dthsY2n9U7u8kSMn-10" target="pzA6dthsY2n9U7u8kSMn-13" edge="1">
                    <mxGeometry relative="1" as="geometry"/>
                </mxCell>
                <mxCell id="pzA6dthsY2n9U7u8kSMn-10" value="&lt;div&gt;Display Circumference + &quot; would&lt;/div&gt;&lt;div&gt;&amp;nbsp;be the circumference and &quot; + Area +&amp;nbsp;&lt;/div&gt;&lt;div&gt;&quot;would be the area of this circle&lt;/div&gt;" style="shape=parallelogram;perimeter=parallelogramPerimeter;whiteSpace=wrap;html=1;fixedSize=1;" parent="1" vertex="1">
                    <mxGeometry x="22.5" y="440" width="207.5" height="90" as="geometry"/>
                </mxCell>
                <mxCell id="pzA6dthsY2n9U7u8kSMn-13" value="End" style="rounded=1;whiteSpace=wrap;html=1;" parent="1" vertex="1">
                    <mxGeometry x="81.25" y="560" width="90" height="30" as="geometry"/>
                </mxCell>
                <mxCell id="2" value="Input=radius" style="shape=parallelogram;perimeter=parallelogramPerimeter;whiteSpace=wrap;html=1;fixedSize=1;" parent="1" vertex="1">
                    <mxGeometry x="68.75" y="190" width="115" height="30" as="geometry"/>
                </mxCell>
            </root>
        </mxGraphModel>
    </diagram>
</mxfile>